<?xml version="1.0" encoding="utf-8"?>
<!-- Generator: Adobe Illustrator 25.4.1, SVG Export Plug-In . SVG Version: 6.00 Build 0)  -->
<svg version="1.1" id="Layer_1" xmlns="http://www.w3.org/2000/svg" xmlns:xlink="http://www.w3.org/1999/xlink" x="0px" y="0px"
	 viewBox="0 0 32 32" style="enable-background:new 0 0 32 32;" xml:space="preserve">
<style type="text/css">
	.st0{display:none;}
	.st1{fill-rule:evenodd;clip-rule:evenodd;fill:#88CEFF;}
	.st2{fill-rule:evenodd;clip-rule:evenodd;fill:#1AA1FF;}
	.st3{fill-rule:evenodd;clip-rule:evenodd;}
	.st4{fill:#B1705B;}
	.st5{fill:#875140;}
	.st6{fill:#683B2E;}
	.st7{fill:#F6E078;}
	.st8{fill:#EBB254;}
	.st9{fill:#E38459;}
	.st10{fill:#FFFFFF;}
	.st11{fill:none;stroke:#FFFFFF;stroke-width:1.5;stroke-miterlimit:10;}
	.st12{fill-rule:evenodd;clip-rule:evenodd;fill:none;stroke:#FFFFFF;stroke-miterlimit:10;}
	.st13{fill-rule:evenodd;clip-rule:evenodd;fill:none;stroke:#00E748;stroke-width:0.25;stroke-miterlimit:10;}
	.st14{fill-rule:evenodd;clip-rule:evenodd;fill:none;stroke:#FFFFFF;stroke-width:1.5;stroke-miterlimit:10;}
	.st15{opacity:0.5;fill:#5A5B5C;}
	.st16{fill-rule:evenodd;clip-rule:evenodd;fill:none;}
</style>
<g>
	<g>
		<path class="st10" d="M23.05,24.17L17.32,6.95C17.13,6.38,16.6,6,16,6c-0.6,0-1.13,0.38-1.32,0.95L8.95,24.17
			c-0.19,0.56,0,1.18,0.48,1.54C9.67,25.9,9.97,26,10.26,26c0.27,0,0.54-0.08,0.77-0.23l4.18-2.79c0.48-0.32,1.09-0.32,1.57,0
			l4.18,2.79c0.49,0.33,1.14,0.31,1.61-0.05C23.05,25.36,23.24,24.74,23.05,24.17z M17.63,21.71c-0.27-0.18-0.57-0.31-0.87-0.39
			v-5.13h-1.52v5.13c-0.3,0.08-0.6,0.21-0.87,0.39l-3.86,2.58L16,7.81l5.49,16.48L17.63,21.71z"/>
	</g>
	<rect x="6" y="6" class="st16" width="20" height="20"/>
	<rect class="st16" width="32" height="32"/>
</g>
</svg>
