<?xml version="1.0" encoding="utf-8"?>
<!-- Generator: Adobe Illustrator 25.3.1, SVG Export Plug-In . SVG Version: 6.00 Build 0)  -->
<svg version="1.1" id="Layer_1" xmlns="http://www.w3.org/2000/svg" xmlns:xlink="http://www.w3.org/1999/xlink" x="0px" y="0px"
	 viewBox="0 0 32 32" style="enable-background:new 0 0 32 32;" xml:space="preserve">
<style type="text/css">
	.st0{display:none;}
	.st1{fill:none;}
	.st2{fill-rule:evenodd;clip-rule:evenodd;fill:#0000FF;}
	.st3{fill-rule:evenodd;clip-rule:evenodd;fill:#CC0000;}
	.st4{fill-rule:evenodd;clip-rule:evenodd;fill:#800000;}
	.st5{fill-rule:evenodd;clip-rule:evenodd;fill:#FFE600;}
	.st6{fill-rule:evenodd;clip-rule:evenodd;fill:#289628;}
	.st7{fill-rule:evenodd;clip-rule:evenodd;fill:#DC00E2;}
</style>
<g>
	<rect class="st1" width="32" height="32"/>
	<g>
		<g>
			<path class="st5" d="M16,25.58c-0.22,0.01-0.44-0.22-0.57-0.61l-2.71,0.57c0-0.35,0.06-0.64,0.31-0.97l1.65-2.16
				c0.13-0.16,0.25-0.31,0.36-0.47c-0.11-0.53-0.27-1.98-0.37-2.74l-0.28-2l-5.42,2.91c-0.56,0.3-0.72-1.49-0.22-1.78l5.64-5.35
				v-2.77c0-2.17,0.95-3.79,1.61-3.79s1.61,1.62,1.61,3.79v2.77l5.64,5.35c0.5,0.29,0.35,2.08-0.22,1.77l-5.42-2.91l-0.28,2
				c-0.1,0.75-0.26,2.21-0.37,2.74c0.11,0.16,0.23,0.31,0.36,0.47l1.65,2.16c0.25,0.33,0.31,0.62,0.31,0.97l-2.71-0.57
				C16.44,25.36,16.22,25.59,16,25.58z"/>
		</g>
	</g>
</g>
</svg>
