<?xml version="1.0" encoding="utf-8"?>
<!-- Generator: Adobe Illustrator 25.4.1, SVG Export Plug-In . SVG Version: 6.00 Build 0)  -->
<svg version="1.1" id="Layer_1" xmlns="http://www.w3.org/2000/svg" xmlns:xlink="http://www.w3.org/1999/xlink" x="0px" y="0px"
	 viewBox="0 0 32 32" style="enable-background:new 0 0 32 32;" xml:space="preserve">
<style type="text/css">
	.st0{display:none;}
	.st1{fill-rule:evenodd;clip-rule:evenodd;fill:#88CEFF;}
	.st2{fill-rule:evenodd;clip-rule:evenodd;fill:#1AA1FF;}
	.st3{fill-rule:evenodd;clip-rule:evenodd;}
	.st4{fill:#B1705B;}
	.st5{fill:#875140;}
	.st6{fill:#683B2E;}
	.st7{fill:#F6E078;}
	.st8{fill:#EBB254;}
	.st9{fill:#E38459;}
	.st10{fill:#FFFFFF;}
	.st11{fill:none;stroke:#FFFFFF;stroke-width:1.5;stroke-miterlimit:10;}
	.st12{fill-rule:evenodd;clip-rule:evenodd;fill:none;stroke:#FFFFFF;stroke-miterlimit:10;}
	.st13{fill-rule:evenodd;clip-rule:evenodd;fill:none;stroke:#00E748;stroke-width:0.25;stroke-miterlimit:10;}
	.st14{fill-rule:evenodd;clip-rule:evenodd;fill:none;stroke:#FFFFFF;stroke-width:1.5;stroke-miterlimit:10;}
	.st15{opacity:0.5;fill:#5A5B5C;}
	.st16{fill-rule:evenodd;clip-rule:evenodd;fill:none;}
</style>
<g>
	<g>
		<path class="st10" d="M25.01,18h-1.79c-0.35-3.4-3.06-6.11-6.46-6.46V6h-1.5v5.53c-3.4,0.35-6.11,3.06-6.46,6.46H6.99v1.5h1.79
			C9.16,23.15,12.25,26,16,26s6.84-2.85,7.22-6.5h1.79V18z M16,12.99c2.92,0,5.33,2.18,5.7,5H10.3C10.67,15.18,13.08,12.99,16,12.99
			z M16,24.5c-2.92,0-5.33-2.18-5.7-5h11.4C21.33,22.31,18.92,24.5,16,24.5z"/>
	</g>
	<rect class="st16" width="32" height="32"/>
	<rect x="6" y="6" class="st16" width="20" height="20"/>
</g>
</svg>
