<?xml version="1.0" encoding="utf-8"?>
<!-- Generator: Adobe Illustrator 25.3.1, SVG Export Plug-In . SVG Version: 6.00 Build 0)  -->
<svg version="1.1" id="Layer_1" xmlns="http://www.w3.org/2000/svg" xmlns:xlink="http://www.w3.org/1999/xlink" x="0px" y="0px"
	 viewBox="0 0 28 28" style="enable-background:new 0 0 28 28;" xml:space="preserve">
<style type="text/css">
	.st0{fill:#538BFF;}
	.st1{fill:none;}
	.st2{fill:#FFFFFF;}
	.st3{fill:#1A2A4D;}
	.st4{fill-rule:evenodd;clip-rule:evenodd;fill:#FFFFFF;}
	.st5{fill:#C2C6CC;}
	.st6{fill-rule:evenodd;clip-rule:evenodd;fill:#C2C6CC;}
	.st7{fill:#8C5C41;}
	.st8{fill:#593A2A;}
	.st9{fill:#7A7B7C;}
	.st10{fill:#3F3F40;}
</style>
<g>
	<rect class="st1" width="28" height="28"/>
	<g>
		<g>
			<path class="st2" d="M14,6.5c-4.1,0-7.5,3.4-7.5,7.5c0,4.1,3.4,7.5,7.5,7.5c4.1,0,7.5-3.4,7.5-7.5C21.5,9.9,18.1,6.5,14,6.5z
				 M14,19.8c-3.2,0-5.8-2.6-5.8-5.8c0-3.2,2.6-5.7,5.8-5.7c3.2,0,5.8,2.6,5.8,5.7C19.8,17.2,17.2,19.8,14,19.8z"/>
			<polygon class="st2" points="14.9,10.8 13.1,10.8 13.1,13.1 10.8,13.1 10.8,14.9 13.1,14.9 13.1,17.2 14.9,17.2 14.9,14.9 
				17.2,14.9 17.2,13.1 14.9,13.1 			"/>
		</g>
	</g>
</g>
</svg>
