<?xml version="1.0" encoding="utf-8"?>
<!-- Generator: Adobe Illustrator 25.3.1, SVG Export Plug-In . SVG Version: 6.00 Build 0)  -->
<svg version="1.1" id="Layer_1" xmlns="http://www.w3.org/2000/svg" xmlns:xlink="http://www.w3.org/1999/xlink" x="0px" y="0px"
	 viewBox="0 0 28 28" style="enable-background:new 0 0 28 28;" xml:space="preserve">
<style type="text/css">
	.st0{fill:#538BFF;}
	.st1{fill:none;}
	.st2{fill:#FFFFFF;}
	.st3{fill:#1A2A4D;}
	.st4{fill-rule:evenodd;clip-rule:evenodd;fill:#FFFFFF;}
	.st5{fill:#C2C6CC;}
	.st6{fill-rule:evenodd;clip-rule:evenodd;fill:#C2C6CC;}
	.st7{fill:#8C5C41;}
	.st8{fill:#593A2A;}
	.st9{fill:#7A7B7C;}
	.st10{fill:#3F3F40;}
</style>
<g>
	<rect class="st1" width="28" height="28"/>
	<g>
		<g>
			<path class="st2" d="M5.7,11.9l7.5,3.5c0.1,0.1,0.3,0.1,0.4,0.1c0.2,0,0.3,0,0.5-0.1l8.2-4.7c0.2-0.1,0.2-0.4,0-0.5l-7.5-3.5
				c-0.1-0.1-0.3-0.1-0.4-0.1c-0.2,0-0.3,0-0.5,0.1l-8.2,4.7C5.4,11.4,5.4,11.7,5.7,11.9z M14.4,8.1l5,2.4l-5.8,3.3l-5-2.4L14.4,8.1
				z"/>
			<path class="st2" d="M22.8,15.8l-3.5-1.6l-1.8,1l2.1,1l-6.1,3.5l-5.3-2.5l2.3-1.3l-1.9-0.9l-3.6,2.1c-0.2,0.1-0.2,0.4,0,0.5
				l8,3.8c0.1,0.1,0.3,0.1,0.4,0.1c0.2,0,0.3,0,0.5-0.1l8.7-5C23.1,16.3,23.1,15.9,22.8,15.8z"/>
		</g>
	</g>
</g>
</svg>
