<?xml version="1.0" encoding="utf-8"?>
<!-- Generator: Adobe Illustrator 25.3.1, SVG Export Plug-In . SVG Version: 6.00 Build 0)  -->
<svg version="1.1" id="Layer_1" xmlns="http://www.w3.org/2000/svg" xmlns:xlink="http://www.w3.org/1999/xlink" x="0px" y="0px"
	 viewBox="0 0 28 28" style="enable-background:new 0 0 28 28;" xml:space="preserve">
<style type="text/css">
	.st0{fill:#538BFF;}
	.st1{fill:none;}
	.st2{fill:#FFFFFF;}
	.st3{fill:#1A2A4D;}
	.st4{fill-rule:evenodd;clip-rule:evenodd;fill:#FFFFFF;}
	.st5{fill:#C2C6CC;}
	.st6{fill-rule:evenodd;clip-rule:evenodd;fill:#C2C6CC;}
	.st7{fill:#8C5C41;}
	.st8{fill:#593A2A;}
	.st9{fill:#7A7B7C;}
	.st10{fill:#3F3F40;}
</style>
<g>
	<rect class="st1" width="28" height="28"/>
	<path class="st2" d="M17,9.9V9.5V9.1c0-1.6-0.8-1.6-1.7-1.6c-0.8,0-0.8,0-2.5,0C11,7.5,11,8.3,11,9.1c0,0.3,0,0.4,0,0.4v0.5H8.5
		v1.6h0.8v8.9h9.3v-8.9h0.8V9.9H17z M12.7,9.1h2.5v0.8h-2.5V9.1z M12.1,19.1h-1.2v-7.5h1.2V19.1z M14.6,19.1h-1.2v-7.5h1.2V19.1z
		 M17.1,19.1h-1.2v-7.5h1.2V19.1z"/>
</g>
</svg>
