<?xml version="1.0" encoding="utf-8"?>
<!-- Generator: Adobe Illustrator 25.3.1, SVG Export Plug-In . SVG Version: 6.00 Build 0)  -->
<svg version="1.1" id="Layer_1" xmlns="http://www.w3.org/2000/svg" xmlns:xlink="http://www.w3.org/1999/xlink" x="0px" y="0px"
	 viewBox="0 0 28 28" style="enable-background:new 0 0 28 28;" xml:space="preserve">
<style type="text/css">
	.st0{fill:#538BFF;}
	.st1{fill:none;}
	.st2{fill:#FFFFFF;}
	.st3{fill:#1A2A4D;}
	.st4{fill-rule:evenodd;clip-rule:evenodd;fill:#FFFFFF;}
	.st5{fill:#C2C6CC;}
	.st6{fill-rule:evenodd;clip-rule:evenodd;fill:#C2C6CC;}
	.st7{fill:#8C5C41;}
	.st8{fill:#593A2A;}
	.st9{fill:#7A7B7C;}
	.st10{fill:#3F3F40;}
</style>
<g>
	<rect class="st1" width="28" height="28"/>
	<g>
		<path class="st2" d="M21.3,19l-2.9-2.9c0.5-0.9,0.8-2,0.8-3.2c0-3.6-2.9-6.5-6.5-6.5c-3.6,0-6.5,2.9-6.5,6.5
			c0,3.6,2.9,6.5,6.5,6.5c1.3,0,2.6-0.4,3.6-1.1l2.8,2.8c0.3,0.3,0.7,0.4,1.1,0.4c0.4,0,0.8-0.1,1.1-0.4
			C21.9,20.5,21.9,19.6,21.3,19z M12.8,17.7c-2.6,0-4.8-2.1-4.8-4.8c0-2.6,2.1-4.7,4.8-4.7c2.6,0,4.8,2.1,4.8,4.7
			C17.5,15.6,15.4,17.7,12.8,17.7z"/>
	</g>
</g>
</svg>
