<?xml version="1.0" encoding="utf-8"?>
<!-- Generator: Adobe Illustrator 25.3.1, SVG Export Plug-In . SVG Version: 6.00 Build 0)  -->
<svg version="1.1" id="Layer_1" xmlns="http://www.w3.org/2000/svg" xmlns:xlink="http://www.w3.org/1999/xlink" x="0px" y="0px"
	 viewBox="0 0 28 28" style="enable-background:new 0 0 28 28;" xml:space="preserve">
<style type="text/css">
	.st0{fill:#538BFF;}
	.st1{fill:none;}
	.st2{fill:#FFFFFF;}
	.st3{fill:#1A2A4D;}
	.st4{fill-rule:evenodd;clip-rule:evenodd;fill:#FFFFFF;}
	.st5{fill:#C2C6CC;}
	.st6{fill-rule:evenodd;clip-rule:evenodd;fill:#C2C6CC;}
	.st7{fill:#8C5C41;}
	.st8{fill:#593A2A;}
	.st9{fill:#7A7B7C;}
	.st10{fill:#3F3F40;}
</style>
<g>
	<rect class="st1" width="28" height="28"/>
	<g>
		<g>
			<path class="st4" d="M14,8.5c-4.7,0-8.6,5.3-8.6,5.5c0,0.2,3.8,5.5,8.6,5.5c4.8,0,8.5-5.5,8.6-5.5C22.7,14,18.7,8.5,14,8.5z
				 M14,17.8c-2.1,0-3.7-1.7-3.7-3.7c0-2.1,1.7-3.8,3.7-3.8c2.1,0,3.8,1.7,3.8,3.8C17.7,16.1,16.1,17.8,14,17.8z"/>
			<path class="st4" d="M14,12.2c-1,0-1.8,0.8-1.8,1.7s0.8,1.8,1.8,1.8c1,0,1.7-0.8,1.7-1.8S15,12.2,14,12.2z"/>
		</g>
	</g>
</g>
</svg>
