<?xml version="1.0" encoding="utf-8"?>
<svg viewBox="0 0 32 32" style="enable-background:new 0 0 32 32;" xmlns="http://www.w3.org/2000/svg">
  <defs>
    <style type="text/css">
	.st0{fill:#08141F;}
	.st1{fill:#D2D2D2;}
	.st2{fill-rule:evenodd;clip-rule:evenodd;fill:#D2D2D2;}
	.st3{fill:#A44113;}
	.st4{fill:#FFFFFF;}
	.st5{fill-rule:evenodd;clip-rule:evenodd;fill:#FFFFFF;}
	.st6{fill:#A28C31;}
	.st7{fill:#434444;}
	.st8{fill:#0D0D0D;}
</style>
  </defs>
  <g id="XMLID_1046_">
    <path class="st8" d="M30,7v18c0,2.76-2.24,5-5,5H7c-2.76,0-5-2.24-5-5V7c0-2.76,2.24-5,5-5h18C27.76,2,30,4.24,30,7z" style="fill: none;"/>
  </g>
  <g id="_x30_02---Hot-World" transform="matrix(1.350628, 0, 0, 1.31993, -7.126381, -6.475634)" style="">
    <path class="st1" d="M19.33,8.59c-0.01-1.84-2.1-2.97-2.34-3.1c-0.01,0.09-0.39,2.14-2.06,3.02c0.02,0,0.04-0.01,0.05-0.01 c0.66-0.15,1.33-0.23,2-0.23C17.78,8.28,18.57,8.39,19.33,8.59z" style="fill: rgb(255, 255, 255);"/>
    <path class="st1" d="M14.66,25.41c0.01,1.89,2.24,3.05,2.34,3.1c0-0.02,0.37-2.13,2.05-3.02c-0.01,0-0.03,0.01-0.05,0.01 C17.58,25.82,16.08,25.79,14.66,25.41z" style="fill: rgb(255, 255, 255);"/>
    <path class="st1" d="M12.71,9.41c-0.62-0.61-1.47-0.78-2.21-0.78c-0.88,0-1.62,0.24-1.63,0.24c0,0,1.24,1.74,0.68,3.59 C10.33,11.19,11.42,10.14,12.71,9.41z" style="fill: rgb(255, 255, 255);"/>
    <path class="st1" d="M24.45,21.54L24.45,21.54L24.45,21.54c-0.77,1.27-1.87,2.32-3.16,3.05c0.58,0.53,1.35,0.81,2.18,0.77 c0.58,0,1.14-0.09,1.68-0.25c-0.02-0.01-1.26-1.73-0.69-3.59C24.46,21.52,24.45,21.54,24.45,21.54z" style="fill: rgb(255, 255, 255);"/>
    <path class="st1" d="M5.5,17C5.5,17,5.5,17,5.5,17c0.09,0.01,2.14,0.39,3.02,2.06c-0.35-1.44-0.33-2.96,0.07-4.39 C6.7,14.67,5.55,16.9,5.5,17z" style="fill: rgb(255, 255, 255);"/>
    <path class="st1" d="M28.5,17c-0.09-0.01-2.14-0.39-3.02-2.05l0,0c0,0,0,0,0,0c0.35,1.44,0.33,2.96-0.07,4.39 C27.29,19.33,28.45,17.09,28.5,17z" style="fill: rgb(255, 255, 255);"/>
    <path class="st1" d="M8.87,25.13c0.19-0.13,1.84-1.21,3.59-0.68c-1.27-0.77-2.32-1.86-3.05-3.15c0,0-0.02-0.04-0.03-0.04l0,0 C8.06,22.65,8.86,25.1,8.87,25.13z" style="fill: rgb(255, 255, 255);"/>
    <path class="st1" d="M21.54,9.55c1.27,0.77,2.32,1.87,3.05,3.16c1.3-1.31,0.62-3.58,0.54-3.84C24.94,9,23.28,10.08,21.54,9.55z" style="fill: rgb(255, 255, 255);"/>
    <g>
      <path class="st1" d="M17.38,12.03c-0.34,0-0.62,0.28-0.62,0.62c0,0.34,0.28,0.62,0.62,0.62h3.57c0.97,0,1.76,0.79,1.76,1.76 s-0.79,1.76-1.76,1.76h-1.19c-0.34,0-0.62,0.28-0.62,0.62s0.28,0.62,0.62,0.62h3.95c0.05-0.34,0.09-0.68,0.09-1.03 c0-1.96-0.84-3.73-2.17-4.97H17.38z" style="fill: rgb(255, 255, 255);"/>
      <path class="st1" d="M13.81,20.41C13.81,20.41,13.81,20.41,13.81,20.41h2.38c0.34,0,0.62-0.28,0.62-0.62s-0.28-0.62-0.62-0.62 h-3.57c-0.97,0-1.76-0.79-1.76-1.76s0.79-1.76,1.76-1.76h0.79c0.34,0,0.62-0.28,0.62-0.62s-0.28-0.62-0.62-0.62h-2.7 c-0.33,0.8-0.51,1.67-0.51,2.59c0,1.84,0.73,3.51,1.92,4.73C12.33,20.97,13.02,20.41,13.81,20.41z" style="fill: rgb(255, 255, 255);"/>
      <path class="st1" d="M19.76,21.94c-0.29,0-0.54,0.21-0.61,0.49c-0.04,0.21,0.02,0.43,0.17,0.58c0.02,0.02,0.15,0.14,0.28,0.26 c0.76-0.32,1.45-0.77,2.05-1.33H19.76z" style="fill: rgb(255, 255, 255);"/>
      <path class="st1" d="M18.17,21.81c0.29-0.61,0.91-1,1.58-1c0,0,0,0,0,0h2.87c0.34-0.5,0.61-1.06,0.81-1.64h-3.68 c-0.97,0-1.76-0.79-1.76-1.76s0.79-1.76,1.76-1.76h1.19c0.34,0,0.62-0.28,0.62-0.62s-0.28-0.62-0.62-0.62h-3.57 c-0.97,0-1.76-0.79-1.76-1.76s0.79-1.76,1.76-1.76l2.59,0c-0.9-0.44-1.9-0.69-2.97-0.69c-2.38,0-4.47,1.22-5.68,3.07h2.1 c0.97,0,1.76,0.79,1.76,1.76s-0.79,1.76-1.76,1.76h-0.79c-0.34,0-0.62,0.28-0.62,0.62s0.28,0.62,0.62,0.62h3.57 c0.97,0,1.76,0.79,1.76,1.76s-0.79,1.76-1.76,1.76h-2.38c0,0,0,0,0,0c-0.21,0-0.41,0.11-0.52,0.29c-0.06,0.1-0.09,0.21-0.09,0.34 c0,0.12,0,0.29,0.01,0.46c1.08,0.73,2.39,1.16,3.8,1.16c0.48,0,0.94-0.05,1.4-0.14C17.98,23.12,17.89,22.41,18.17,21.81z" style="fill: rgb(255, 255, 255);"/>
    </g>
  </g>
</svg>