<?xml version="1.0" encoding="utf-8"?>
<svg viewBox="0 0 32 32" style="enable-background:new 0 0 32 32;" xmlns="http://www.w3.org/2000/svg">
  <defs>
    <style type="text/css">
	.st0{fill:#08141F;}
	.st1{fill:#D2D2D2;}
	.st2{fill-rule:evenodd;clip-rule:evenodd;fill:#D2D2D2;}
	.st3{fill:#A44113;}
	.st4{fill:#FFFFFF;}
	.st5{fill-rule:evenodd;clip-rule:evenodd;fill:#FFFFFF;}
	.st6{fill:#A28C31;}
	.st7{fill:#434444;}
	.st8{fill:#0D0D0D;}
</style>
  </defs>
  <g id="XMLID_1048_">
    <path class="st8" d="M30,7v18c0,2.76-2.24,5-5,5H7c-2.76,0-5-2.24-5-5V7c0-2.76,2.24-5,5-5h18C27.76,2,30,4.24,30,7z" style="fill: none;"/>
  </g>
  <path class="st1" d="M 15.705 0.941 C 7.256 0.941 0.387 7.488 0.387 15.541 C 0.387 23.594 7.256 30.141 15.705 30.141 C 24.155 30.141 31.024 23.594 31.024 15.541 C 31.024 7.488 24.155 0.941 15.705 0.941 Z M 14.496 2.8 C 14.512 2.877 14.512 2.97 14.512 3.047 C 14.512 4.66 12.964 7.15 11.465 9.548 C 9.739 12.313 7.965 15.188 7.965 17.447 C 7.933 18.384 8.304 19.321 8.998 19.998 L 8.998 19.998 C 11.238 22.149 17.511 22.257 28.105 20.336 L 27.653 21.304 C 16.302 23.44 9.981 23.317 7.305 20.813 C 6.563 20.105 6.353 19.261 6.353 17.907 C 6.353 16.14 7.74 13.42 9.207 10.638 C 10.625 7.949 12.528 5.475 12.77 3.139 C 13.334 2.985 13.915 2.877 14.496 2.8 Z M 9.916 19.245 C 9.481 18.814 9.127 17.938 9.142 17.324 C 9.142 15.387 10.852 12.667 12.481 10.054 C 14.142 7.38 15.302 5.536 15.625 3.6 C 15.64 3.476 15.705 2.816 15.689 2.693 C 16.124 2.693 16.688 2.723 17.124 2.754 C 16.769 4.782 15.528 7.181 14.318 9.517 C 12.432 13.159 10.642 16.617 12.174 18.354 C 12.867 19.153 14.27 19.552 16.382 19.552 C 19.253 19.552 23.461 18.814 29.024 17.324 C 28.943 17.846 28.831 18.354 28.701 18.86 C 18.737 21.258 11.851 21.073 9.916 19.245 Z M 23.832 5.49 C 25.638 6.781 26.992 8.595 27.895 10.577 C 24.961 11.237 24.009 10.638 23.638 10.393 C 23.268 10.147 22.978 9.731 22.978 8.994 C 22.961 8.256 23.283 6.812 23.832 5.49 Z M 21.881 4.199 C 22.219 4.353 22.639 4.66 22.961 4.859 C 22.477 6.427 22.026 8.056 22.058 9.101 C 22.074 9.885 22.365 10.684 22.929 11.161 C 23.51 11.622 24.299 11.73 25.557 11.73 C 26.364 11.73 27.17 11.607 28.315 11.391 C 28.379 11.576 28.54 12.007 28.589 12.206 C 23.752 13.159 21.994 12.483 21.317 11.853 C 20.317 10.9 20.897 8.487 21.413 6.336 C 21.574 5.612 21.752 4.89 21.881 4.199 Z M 20.881 3.738 C 20.752 4.506 20.575 5.306 20.381 6.105 C 19.785 8.595 19.155 11.177 20.575 12.529 C 21.3 13.22 22.509 13.559 24.251 13.559 C 25.509 13.559 27.04 13.374 28.831 13.02 C 28.879 13.297 28.96 13.574 28.992 13.866 C 20.091 16.648 17.64 15.987 16.979 15.325 C 15.996 14.343 17.269 11.192 18.317 8.641 C 19.027 6.889 19.753 5.09 20.059 3.461 C 20.333 3.553 20.607 3.646 20.881 3.738 Z M 17.333 8.287 C 16.011 11.514 14.77 14.572 16.221 16.018 C 16.818 16.617 17.834 16.908 19.301 16.908 C 21.51 16.908 24.735 16.232 29.105 14.865 C 29.121 15.325 29.121 15.802 29.072 16.278 C 16.866 19.552 13.754 18.568 12.996 17.707 C 11.916 16.463 13.705 13.02 15.27 9.962 C 16.495 7.595 17.753 5.167 18.156 3.016 C 18.446 3.062 18.72 3.124 19.011 3.184 C 18.752 4.753 18.043 6.535 17.333 8.287 Z M 15.705 28.404 C 8.272 28.404 2.209 22.641 2.209 15.541 C 2.209 9.885 6.062 5.09 11.384 3.369 C 11.722 4.707 9.336 7.888 8.046 10.331 C 6.433 13.374 5.289 16.018 5.16 17.769 C 5.031 19.567 5.644 20.782 6.418 21.596 C 7.723 22.918 10.755 23.917 14.592 23.917 C 17.946 23.917 22.639 23.301 26.976 22.564 C 24.573 26.068 20.43 28.404 15.705 28.404 Z" style="fill: rgb(255, 255, 255);"/>
</svg>