<?xml version="1.0" encoding="utf-8"?>
<svg viewBox="0 0 32 32" style="enable-background:new 0 0 32 32;" xmlns="http://www.w3.org/2000/svg">
  <defs>
    <style type="text/css">
	.st0{fill:#08141F;}
	.st1{fill:#D2D2D2;}
	.st2{fill-rule:evenodd;clip-rule:evenodd;fill:#D2D2D2;}
	.st3{fill:#A44113;}
	.st4{fill:#FFFFFF;}
	.st5{fill-rule:evenodd;clip-rule:evenodd;fill:#FFFFFF;}
	.st6{fill:#A28C31;}
	.st7{fill:#434444;}
	.st8{fill:#0D0D0D;}
</style>
  </defs>
  <g id="XMLID_1043_">
    <path class="st8" d="M30,7v18c0,2.76-2.24,5-5,5H7c-2.76,0-5-2.24-5-5V7c0-2.76,2.24-5,5-5h18C27.76,2,30,4.24,30,7z" style="fill: none;"/>
  </g>
  <g style="" transform="matrix(1.520148, 0, 0, 1.460299, -8.552626, -7.917147)">
    <path class="st1" d="M25.63,21.39c-0.2,0-0.36,0.16-0.36,0.36c0,1.95-1.59,3.53-3.53,3.53c-0.2,0-0.36,0.16-0.36,0.36 S21.54,26,21.74,26c2.35,0,4.26-1.91,4.26-4.26C25.99,21.55,25.83,21.39,25.63,21.39z" style="fill: rgb(255, 255, 255);"/>
    <path class="st1" d="M21.73,24.7c1.63,0,2.96-1.33,2.96-2.96c0-0.2-0.16-0.36-0.36-0.36s-0.36,0.16-0.36,0.36 c0,1.23-1,2.24-2.24,2.24c-0.2,0-0.36,0.16-0.36,0.36S21.54,24.7,21.73,24.7z" style="fill: rgb(255, 255, 255);"/>
    <path class="st1" d="M21.73,23.41c0.92,0,1.66-0.75,1.66-1.66c0-0.2-0.16-0.36-0.36-0.36s-0.36,0.16-0.36,0.36 c0,0.51-0.42,0.93-0.93,0.93c-0.2,0-0.36,0.16-0.36,0.36S21.54,23.41,21.73,23.41z" style="fill: rgb(255, 255, 255);"/>
    <path class="st1" d="M22.56,7.33l1.83,1.83l-3.73,3.73l-0.43-0.43l0,0l-0.74-0.74l-0.66-0.66L22.56,7.33 M12.46,11.79l0.33,0.33 l0.62,0.62l0.72-0.5c0.16-0.11,0.35-0.17,0.55-0.17c0.26,0,0.5,0.1,0.68,0.28l1.53,1.53l0,0l0.74,0.74l1.83,1.83l-0.43,0.43 l-0.74,0.74l0.74,0.74l0.57,0.57l0.45,0.45l0.61-0.2c0.24-0.08,0.49-0.12,0.74-0.12c0.39,0,0.77,0.09,1.11,0.27l-1.34,1.34 l-0.74,0.74l0,0l-1.11,1.11c-0.3-0.56-0.36-1.22-0.15-1.84l0.2-0.61l-0.45-0.45l-0.57-0.57L17.6,18.3l-0.74,0.74l-0.43,0.43 l-1.61-1.61l0,0l-0.74-0.74l-1.75-1.75c-0.19-0.19-0.28-0.42-0.28-0.68c0-0.2,0.06-0.39,0.17-0.55l0.5-0.72l-0.62-0.62l-0.33-0.33 L12.46,11.79 M11.05,18.85l0.43,0.43l0,0l0.74,0.74l0.66,0.66L9.14,24.4l-1.83-1.83L11.05,18.85 M22.56,6 c-0.09,0-0.19,0.03-0.26,0.1l-4.69,4.7c-0.07,0.07-0.1,0.16-0.1,0.26s0.03,0.19,0.1,0.26l1.14,1.14l-0.92,0.92l-1.75-1.75 c-0.39-0.39-0.9-0.58-1.41-0.58c-0.4,0-0.8,0.12-1.14,0.35l-0.81-0.81c-0.07-0.07-0.16-0.1-0.26-0.1c-0.09,0-0.19,0.03-0.26,0.1 l-1.65,1.65c-0.07,0.07-0.1,0.16-0.1,0.26s0.03,0.19,0.1,0.26l0.81,0.81c-0.23,0.33-0.35,0.73-0.35,1.14 c0,0.53,0.21,1.04,0.59,1.41l1.75,1.75l-0.92,0.92l-1.14-1.14c-0.07-0.07-0.16-0.1-0.26-0.1c-0.09,0-0.19,0.03-0.26,0.1l-4.7,4.7 c-0.14,0.14-0.14,0.37,0,0.51l2.78,2.78c0.07,0.07,0.16,0.1,0.26,0.1s0.19-0.03,0.26-0.1l4.7-4.7c0.14-0.14,0.14-0.37,0-0.51 l-1.14-1.14l0.92-0.92l2.32,2.32c0.07,0.07,0.16,0.1,0.26,0.1c0.09,0,0.19-0.03,0.26-0.1l0.91-0.91l0.57,0.57 c-0.39,1.17-0.11,2.53,0.82,3.46c0.07,0.07,0.16,0.1,0.26,0.1c0.09,0,0.19-0.03,0.26-0.1l1.89-1.89l0.13,0.13 c0.07,0.07,0.16,0.1,0.26,0.1c0.09,0,0.19-0.03,0.26-0.1c0.14-0.14,0.14-0.37,0-0.51l-0.13-0.13l1.89-1.89 c0.07-0.07,0.1-0.16,0.1-0.26c0-0.09-0.03-0.19-0.1-0.26c-0.66-0.66-1.53-0.99-2.4-0.99c-0.36,0-0.72,0.06-1.06,0.17l-0.57-0.57 l0.91-0.91c0.14-0.14,0.14-0.37,0-0.51l-2.32-2.32l0.92-0.92l1.14,1.14c0.07,0.07,0.16,0.1,0.26,0.1s0.19-0.03,0.26-0.1l4.7-4.7 c0.07-0.07,0.1-0.16,0.1-0.26c0-0.09-0.03-0.19-0.1-0.26L22.85,6.1C22.75,6.05,22.67,6,22.56,6L22.56,6z" style="fill: rgb(255, 255, 255);"/>
  </g>
</svg>